<svg width="250" height="250" viewBox="0 0 250 250" fill="none" xmlns="http://www.w3.org/2000/svg">
<path d="M250 125C250 194.036 194.036 250 125 250C55.9644 250 0 194.036 0 125C0 55.9644 55.9644 0 125 0C194.036 0 250 55.9644 250 125Z" fill="#498497"/>
<path d="M77 137V80.36H79.88V137H77ZM82.76 137V80.36H88.52V137H82.76ZM97.16 137V80.36H100.04V137H97.16ZM85.832 145.352H91.016C92.872 145.352 94.312 145.608 95.336 146.12C96.424 146.632 97.352 147.4 98.12 148.424C99.592 150.344 100.328 153.064 100.328 156.584C100.2 160.232 99.368 162.984 97.832 164.84C96.296 166.76 93.896 167.688 90.632 167.624H85.832V145.352ZM90.44 165.704C95.368 165.704 97.832 162.728 97.832 156.776C97.832 153.768 97.288 151.464 96.2 149.864C95.048 148.264 93.256 147.464 90.824 147.464H88.232V165.704H90.44Z" fill="white"/>
<path d="M108.688 137V80.36H114.448V137H108.688ZM117.327 137V80.36H125.967V137H117.327ZM128.848 137V80.36H137.488V137H128.848ZM124.528 168.008C122.224 168.008 120.463 167.304 119.247 165.896C118.031 164.488 117.424 162.504 117.424 159.944V145.352H120.208V145.64C120.016 145.768 119.92 145.928 119.92 146.12C119.856 146.248 119.824 146.536 119.824 146.984V159.944C119.824 161.864 120.208 163.336 120.976 164.36C121.68 165.384 122.896 165.896 124.624 165.896C126.288 165.896 127.503 165.384 128.271 164.36C129.039 163.336 129.424 161.832 129.424 159.848V145.352H131.824V159.848C131.824 162.6 131.184 164.648 129.904 165.992C128.624 167.336 126.832 168.008 124.528 168.008Z" fill="white"/>
<path d="M140.375 137V80.36H143.255V137H140.375ZM151.895 137V80.36H154.775V137H151.895ZM163.415 137V80.36H169.175V137H163.415ZM157.463 168.008C155.799 168.008 154.327 167.592 153.047 166.76C151.703 165.928 150.647 164.68 149.879 163.016C149.111 161.288 148.727 159.144 148.727 156.584C148.727 153.896 149.143 151.688 149.975 149.96C150.807 148.296 151.863 147.08 153.143 146.312C154.423 145.608 155.799 145.256 157.271 145.256C158.871 145.256 160.247 145.64 161.399 146.408C162.551 147.176 163.415 148.232 163.991 149.576L161.879 150.632L161.591 150.728L161.495 150.536V150.248C161.495 149.992 161.335 149.64 161.015 149.192C160.503 148.488 159.927 147.976 159.287 147.656C158.647 147.336 157.975 147.176 157.271 147.176C155.351 147.176 153.847 148.008 152.759 149.672C151.735 151.272 151.223 153.544 151.223 156.488C151.223 158.28 151.479 159.912 151.991 161.384C152.567 162.792 153.303 163.88 154.199 164.648C155.159 165.416 156.215 165.8 157.367 165.8C158.263 165.8 159.095 165.576 159.863 165.128C160.695 164.616 161.367 163.944 161.879 163.112L163.703 164.36C162.935 165.576 162.071 166.472 161.111 167.048C160.087 167.688 158.871 168.008 157.463 168.008Z" fill="white"/>
</svg>
