<svg width="250" height="250" viewBox="0 0 250 250" fill="none" xmlns="http://www.w3.org/2000/svg">
<path d="M250 125C250 194.036 194.036 250 125 250C55.9644 250 0 194.036 0 125C0 55.9644 55.9644 0 125 0C194.036 0 250 55.9644 250 125Z" fill="#498497"/>
<path d="M52 163.5C58 163.5 63.3333 161.167 68 156.5C73 151.5 75.5 140.833 75.5 124.5C75.5 107.833 72.8333 96.8333 67.5 91.5C63.1667 87.1667 58 85 52 85H46.5V163.5H52ZM52 75.5C62.3333 75.5 70.5 78.5 76.5 84.5C84.1667 92.1667 88 105.5 88 124.5C88 143.167 84.5 156 77.5 163C70.8333 169.667 62.3333 173 52 173H35V75.5H52Z" fill="white"/>
<path d="M99 75.5H110.5V147C110.5 152.333 111.667 156.167 114 158.5C116.333 160.833 119.833 162 124.5 162H125C129.333 162 132.667 160.833 135 158.5C137.667 155.833 139 152 139 147V75.5H150.5V147C150.5 155.667 148 162.5 143 167.5C139.333 171.167 133.333 173 125 173H124.5C116.167 173 110.167 171.167 106.5 167.5C101.5 162.5 99 155.667 99 147V75.5Z" fill="white"/>
<path d="M217 135.5C216 150.5 212.833 160.667 207.5 166C202.833 170.667 197.333 173 191 173C184.667 173 179.167 170.667 174.5 166C166.167 157.667 162 144.667 162 127C162 106.333 166.5 91.5 175.5 82.5C180.167 77.8333 185.5 75.5 191.5 75.5C197.833 75.5 202.833 77.3333 206.5 81C213.5 88 216.833 97.5 216.5 109.5H205.5C205.167 98.8333 203.167 91.6667 199.5 88C197.5 86 194.833 85 191.5 85C188.5 85 185.833 86.1667 183.5 88.5C176.833 95.1667 173.5 107.667 173.5 126C173.5 142 176.333 152.833 182 158.5C184.667 161.167 187.667 162.5 191 162.5C194 162.5 196.833 161.167 199.5 158.5C202.833 155.167 204.667 147.5 205 135.5H217Z" fill="white"/>
</svg>
